<svg width="157" height="204" viewBox="0 0 157 204" fill="none" xmlns="http://www.w3.org/2000/svg">
<path d="M113.003 22.0733L102.784 23.2163L106.266 29.8413L113.003 22.0733Z" fill="#222529"/>
<path d="M114.205 15.8146L100.189 21.6592L104.682 27.6441L114.205 15.8146Z" fill="#222529"/>
<path d="M43.255 21.9234L53.4739 23.0664L49.9923 29.6914L43.255 21.9234Z" fill="#222529"/>
<path d="M42.0537 15.6647L56.07 21.5093L51.5763 27.4942L42.0537 15.6647Z" fill="#222529"/>
<path d="M45.9348 42.9894C45.9348 25.3576 60.2282 11.0642 77.86 11.0642C95.4918 11.0642 109.785 25.3576 109.785 42.9894V64.2729C109.785 81.9047 95.4918 96.1981 77.86 96.1981C60.2282 96.1981 45.9348 81.9047 45.9348 64.2729V42.9894Z" fill="#596068"/>
<path fill-rule="evenodd" clip-rule="evenodd" d="M109.785 42.9901C109.785 25.3583 95.4913 11.0649 77.8595 11.0649C60.2277 11.0649 45.9343 25.3583 45.9343 42.9901V64.2736C45.9343 67.8126 46.5102 71.2171 47.5732 74.3985L58.763 63.2087V89.86C64.0886 93.8412 70.6987 96.1988 77.8595 96.1988C85.0464 96.1988 91.6787 93.824 97.0144 89.8163V63.2095L108.16 74.3553C109.214 71.1863 109.785 67.7966 109.785 64.2736V42.9901Z" fill="#AEB5BC"/>
<path fill-rule="evenodd" clip-rule="evenodd" d="M77.8595 11.0637C95.4913 11.0637 109.785 25.3571 109.785 42.9889V64.2724C109.785 68.0739 109.12 71.7202 107.901 75.1015L107.901 75.1014C107.973 74.9015 108.043 74.7008 108.111 74.4991L77.8591 44.2469L47.6073 74.4986C46.5225 71.2882 45.9343 67.849 45.9343 64.2724V42.9889C45.9343 34.4718 49.2695 26.7337 54.7052 21.0094L77.8591 44.1634L101.013 21.0091C95.1963 14.8833 86.9738 11.0638 77.8593 11.0638C74.4807 11.0638 71.2247 11.5886 68.1684 12.5612C71.2248 11.5886 74.4809 11.0637 77.8595 11.0637ZM93.2754 92.2357C94.7988 91.3941 96.2461 90.4316 97.6043 89.3611V89.361C96.2461 90.4315 94.7988 91.394 93.2754 92.2357Z" fill="#DFE2E5"/>
<path d="M109.786 44.131C109.786 51.4776 103.83 57.4332 96.4838 57.4332C89.1372 57.4332 83.1816 51.4776 83.1816 44.131C83.1816 36.7844 89.1372 30.8289 96.4838 30.8289C103.83 30.8289 109.786 36.7844 109.786 44.131Z" fill="#52BAE6"/>
<path fill-rule="evenodd" clip-rule="evenodd" d="M96.4838 53.8698C101.862 53.8698 106.223 49.5096 106.223 44.131C106.223 38.7525 101.862 34.3923 96.4838 34.3923C91.1052 34.3923 86.7451 38.7525 86.7451 44.131C86.7451 49.5096 91.1052 53.8698 96.4838 53.8698ZM96.4838 57.4332C103.83 57.4332 109.786 51.4776 109.786 44.131C109.786 36.7844 103.83 30.8289 96.4838 30.8289C89.1372 30.8289 83.1816 36.7844 83.1816 44.131C83.1816 51.4776 89.1372 57.4332 96.4838 57.4332Z" fill="#E8EDF2"/>
<path fill-rule="evenodd" clip-rule="evenodd" d="M96.4838 55.3048C102.655 55.3048 107.658 50.3022 107.658 44.131C107.658 37.9599 102.655 32.9572 96.4838 32.9572C90.3127 32.9572 85.31 37.9599 85.31 44.131C85.31 50.3022 90.3127 55.3048 96.4838 55.3048ZM96.4838 57.4332C103.83 57.4332 109.786 51.4776 109.786 44.131C109.786 36.7844 103.83 30.8289 96.4838 30.8289C89.1372 30.8289 83.1816 36.7844 83.1816 44.131C83.1816 51.4776 89.1372 57.4332 96.4838 57.4332Z" fill="#596068"/>
<circle cx="96.4842" cy="44.1308" r="7.70125" fill="#222529"/>
<circle cx="93.6831" cy="41.3309" r="2.10034" fill="white"/>
<path d="M45.9357 44.131C45.9357 51.4776 51.8913 57.4332 59.2379 57.4332C66.5845 57.4332 72.54 51.4776 72.54 44.131C72.54 36.7844 66.5845 30.8289 59.2379 30.8289C51.8913 30.8289 45.9357 36.7844 45.9357 44.131Z" fill="#52BAE6"/>
<path fill-rule="evenodd" clip-rule="evenodd" d="M59.2379 53.8698C53.8593 53.8698 49.4991 49.5096 49.4991 44.131C49.4991 38.7525 53.8593 34.3923 59.2379 34.3923C64.6164 34.3923 68.9766 38.7525 68.9766 44.131C68.9766 49.5096 64.6164 53.8698 59.2379 53.8698ZM59.2379 57.4332C51.8913 57.4332 45.9357 51.4776 45.9357 44.131C45.9357 36.7844 51.8913 30.8289 59.2379 30.8289C66.5845 30.8289 72.54 36.7844 72.54 44.131C72.54 51.4776 66.5845 57.4332 59.2379 57.4332Z" fill="#E8EDF2"/>
<path fill-rule="evenodd" clip-rule="evenodd" d="M59.2379 55.3048C53.0667 55.3048 48.0641 50.3022 48.0641 44.131C48.0641 37.9599 53.0667 32.9572 59.2379 32.9572C65.409 32.9572 70.4117 37.9599 70.4117 44.131C70.4117 50.3022 65.409 55.3048 59.2379 55.3048ZM59.2379 57.4332C51.8913 57.4332 45.9357 51.4776 45.9357 44.131C45.9357 36.7844 51.8913 30.8289 59.2379 30.8289C66.5845 30.8289 72.54 36.7844 72.54 44.131C72.54 51.4776 66.5845 57.4332 59.2379 57.4332Z" fill="#596068"/>
<circle r="7.70125" transform="matrix(-1 0 0 1 59.2384 44.1308)" fill="#222529"/>
<circle r="2.10034" transform="matrix(-1 0 0 1 62.0386 41.3309)" fill="white"/>
<path d="M77.8608 57.4326L73.2528 50.2494L82.4688 50.2494L77.8608 57.4326Z" fill="#222529"/>
<rect x="72.54" y="99.9999" width="1.59626" height="9.57756" rx="0.79813" transform="rotate(-180 72.54 99.9999)" fill="#222529"/>
<rect x="69.8799" y="99.9999" width="1.59626" height="9.57756" rx="0.79813" transform="rotate(-180 69.8799 99.9999)" fill="#222529"/>
<rect x="67.22" y="99.9999" width="1.59626" height="9.57756" rx="0.79813" transform="rotate(-180 67.22 99.9999)" fill="#222529"/>
<rect x="64.5588" y="99.9999" width="1.59626" height="9.57756" rx="0.79813" transform="rotate(-180 64.5588 99.9999)" fill="#222529"/>
<rect x="91.6953" y="99.9999" width="1.59626" height="9.57756" rx="0.79813" transform="rotate(-180 91.6953 99.9999)" fill="#222529"/>
<rect x="89.0349" y="99.9999" width="1.59626" height="9.57756" rx="0.79813" transform="rotate(-180 89.0349 99.9999)" fill="#222529"/>
<rect x="86.3743" y="99.9999" width="1.59626" height="9.57756" rx="0.79813" transform="rotate(-180 86.3743 99.9999)" fill="#222529"/>
<rect x="83.7139" y="99.9999" width="1.59626" height="9.57756" rx="0.79813" transform="rotate(-180 83.7139 99.9999)" fill="#222529"/>
<g clip-path="url(#clip0_81_40410)">
<path d="M77.7869 61C77.3773 61.0294 77.0669 61.388 77.0883 61.8066V62.0115C77.1075 62.2437 77.1416 62.4737 77.1864 62.7015C77.2518 63.1377 77.2754 63.5795 77.2568 64.0204C77.2163 64.1654 77.1352 64.2962 77.0243 64.3965L77.0083 64.7038C76.5763 64.7409 76.1475 64.8085 75.7251 64.9066C73.9482 65.3164 72.3301 66.2582 71.0811 67.6153L70.8252 67.43C70.6844 67.4736 70.5329 67.4572 70.4038 67.3864C70.0576 67.1245 69.7372 66.8288 69.4471 66.5034C69.3014 66.3255 69.1457 66.1563 68.981 65.9966L68.8231 65.868C68.6823 65.7524 68.5095 65.6859 68.3293 65.6772C68.2217 65.6714 68.1143 65.6917 68.0159 65.7364C67.9175 65.7811 67.8308 65.849 67.7629 65.9345C67.5219 66.28 67.6008 66.7585 67.9378 67.0059L68.085 67.1258C68.2745 67.2547 68.4711 67.3722 68.6738 67.4779C69.0514 67.6926 69.4076 67.9444 69.7383 68.2409C69.8229 68.3642 69.872 68.5092 69.8801 68.6595L70.1127 68.8775C68.8573 70.8024 68.3421 73.134 68.6642 75.4241L68.3656 75.5113C68.2877 75.6377 68.1842 75.7456 68.0605 75.8252C67.6438 75.9389 67.2173 76.0108 66.787 76.0399C66.5586 76.0447 66.3307 76.0629 66.1043 76.0944L65.9156 76.138H65.8942C65.7632 76.1566 65.6398 76.212 65.5378 76.298C65.4357 76.384 65.359 76.4972 65.3163 76.6252C65.2735 76.7531 65.2663 76.8906 65.2954 77.0224C65.3246 77.1543 65.389 77.2753 65.4814 77.3719C65.5748 77.4681 65.6924 77.5358 65.8213 77.5676C65.9501 77.5993 66.085 77.5939 66.211 77.5518H66.2249L66.4169 77.53C66.6334 77.4646 66.8467 77.3839 67.0547 77.2923C67.4547 77.1288 67.8696 77.0035 68.2941 76.9217C68.4413 76.9305 68.5821 76.9817 68.7015 77.0689L69.0215 77.0144C69.7148 79.2129 71.1718 81.0758 73.1173 82.2497L72.9872 82.5277C73.0469 82.6552 73.0693 82.7969 73.0512 82.9375C72.8752 83.3539 72.6597 83.7528 72.408 84.1278C72.2699 84.3138 72.1424 84.5078 72.0261 84.7088L71.9355 84.905C71.8697 85.0216 71.8367 85.1545 71.8402 85.289C71.8437 85.4236 71.8835 85.5545 71.9553 85.6674C72.027 85.7803 72.1278 85.8707 72.2467 85.9287C72.3656 85.9867 72.4978 86.01 72.6288 85.9961C72.7601 85.981 72.8847 85.929 72.9888 85.8458C73.093 85.7627 73.1725 85.6517 73.2186 85.5252L73.3071 85.3399C73.3882 85.1219 73.4565 84.8995 73.5119 84.675C73.7007 84.1986 73.8031 83.6874 74.0612 83.3713C74.1456 83.2903 74.2519 83.2371 74.3663 83.2187L74.5263 82.9211C76.6352 83.7495 78.9688 83.7554 81.0816 82.9375L81.2235 83.2154C81.3686 83.2372 81.4987 83.319 81.5862 83.4389C81.7867 83.8291 81.9488 84.2379 82.0725 84.6597C82.1289 84.8856 82.198 85.1079 82.2794 85.3257L82.368 85.511C82.4145 85.6371 82.4943 85.7475 82.5985 85.8301C82.7026 85.9127 82.8271 85.9642 82.9582 85.979C83.0892 85.9938 83.2217 85.9712 83.341 85.9138C83.4603 85.8564 83.5617 85.7664 83.634 85.6538C83.7057 85.5405 83.7452 85.4091 83.7482 85.2742C83.7512 85.1393 83.7176 85.0062 83.6511 84.8897L83.5583 84.6935C83.442 84.4932 83.3145 84.3 83.1765 84.1147C82.9311 83.7528 82.72 83.367 82.5365 82.9626C82.5194 82.8886 82.517 82.8119 82.5294 82.737C82.5419 82.6621 82.569 82.5906 82.609 82.5266C82.5635 82.4315 82.524 82.3336 82.4906 82.2333C84.4319 81.0507 85.8825 79.1813 86.5683 76.9795L86.8712 77.034C86.98 76.9326 87.1229 76.8792 87.269 76.8836C87.6925 76.9664 88.1074 77.1016 88.5084 77.2542C88.7164 77.3523 88.9297 77.4351 89.1463 77.5049C89.1975 77.5191 89.2721 77.5311 89.3297 77.5452H89.3436C89.4695 77.5868 89.6042 77.5918 89.7327 77.5597C89.8612 77.5277 89.9785 77.4598 90.0715 77.3636C90.1645 77.2674 90.2295 77.1468 90.2594 77.0151C90.2893 76.8834 90.2827 76.7458 90.2406 76.6176C90.1975 76.4896 90.1204 76.3763 90.0179 76.2905C89.9155 76.2046 89.7917 76.1496 89.6604 76.1315L89.4535 76.0813C89.2271 76.0498 88.9992 76.0316 88.7708 76.0268C88.3399 75.9985 87.9133 75.9266 87.4973 75.8121C87.3693 75.7391 87.2626 75.6301 87.1901 75.4982L86.9021 75.411C87.2092 73.122 86.6831 70.7974 85.4238 68.8786L85.6755 68.641C85.6649 68.4916 85.7129 68.3434 85.8078 68.2289C86.1352 67.9412 86.4904 67.6872 86.8637 67.4703C87.0664 67.3645 87.263 67.247 87.4525 67.1182L87.6082 66.9896C87.7229 66.9169 87.815 66.8125 87.874 66.6884C87.9331 66.5644 87.9565 66.4258 87.9417 66.2888C87.9268 66.1517 87.8743 66.0217 87.7902 65.9139C87.7061 65.8061 87.5938 65.7248 87.4664 65.6794C87.339 65.6341 87.2017 65.6266 87.0704 65.6576C86.939 65.6887 86.8189 65.7571 86.724 65.8549L86.5661 65.9835C86.4014 66.1432 86.2458 66.3125 86.1 66.4904C85.8185 66.8196 85.507 67.1193 85.1689 67.3874C85.0324 67.4442 84.8832 67.4608 84.738 67.4354L84.4681 67.6316C82.9109 65.9639 80.8129 64.9284 78.5645 64.7213C78.5645 64.6123 78.5506 64.4488 78.5485 64.3976C78.4279 64.3125 78.3437 64.1828 78.3159 64.0357C78.3011 63.5955 78.3283 63.1549 78.397 62.72C78.4429 62.4911 78.4749 62.2622 78.4951 62.0301V61.8121C78.5165 61.3935 78.2071 61.0349 77.7965 61.0055L77.7869 61ZM76.8973 66.631L76.684 70.4384H76.668C76.6574 70.6738 76.5219 70.8744 76.3139 70.9877C76.1059 71.1011 75.8595 71.0673 75.6739 70.9289L72.6181 68.7162C73.5908 67.7399 74.811 67.0607 76.1411 66.7552C76.3907 66.7007 76.6424 66.6593 76.8952 66.631H76.8973ZM78.6764 66.631C80.2817 66.8348 81.776 67.5717 82.9322 68.7282L79.9052 70.9267C79.7185 71.0793 79.4625 71.1098 79.246 71.0052C79.0295 70.9005 78.8908 70.6782 78.8876 70.434L78.6764 66.631ZM71.5088 70.1484L74.3034 72.6969V72.7132C74.4772 72.868 74.5529 73.1089 74.5017 73.3389C74.4505 73.5689 74.2778 73.7509 74.057 73.813V73.8239L70.471 74.878C70.2936 73.227 70.6591 71.5625 71.5099 70.1473L71.5088 70.1484ZM84.0447 70.1484C84.8937 71.56 85.2691 73.2157 85.1134 74.8649L81.5222 73.8076V73.7934C81.2982 73.7313 81.1275 73.5493 81.0774 73.3193C81.0273 73.0893 81.1019 72.8506 81.2758 72.6936L84.049 70.1572L84.0447 70.1484ZM77.2141 72.8953H78.3575L79.0562 73.8021L78.8023 74.9357L77.7752 75.4404L76.7459 74.9357L76.5038 73.8021L77.2141 72.8953ZM80.8769 75.9887C80.9249 75.9832 80.9835 75.9832 81.0209 75.9887L84.7188 76.6264C84.1855 78.196 83.1327 79.5367 81.7589 80.4337L80.3297 76.8978C80.2904 76.8029 80.274 76.6998 80.2818 76.5971C80.2896 76.4944 80.3215 76.3951 80.3747 76.3076C80.4279 76.2201 80.5009 76.147 80.5876 76.0943C80.6742 76.0416 80.772 76.011 80.8726 76.005L80.8769 75.9887ZM74.666 76.005C74.8751 76.0083 75.0681 76.1184 75.1822 76.2972C75.2964 76.4759 75.3145 76.7005 75.2324 76.8967V76.9108L73.8117 80.4185C72.4517 79.528 71.4193 78.2036 70.8699 76.6503L74.5359 76.0149C74.5764 76.0105 74.618 76.0105 74.6596 76.0149L74.666 76.005ZM77.7634 77.5311C77.88 77.5273 77.9952 77.5567 78.0964 77.616C78.1975 77.6753 78.2805 77.7621 78.3362 77.8668H78.3501L80.1569 81.1989L79.4348 81.4169C78.1058 81.7276 76.7182 81.6546 75.4265 81.2055L77.2397 77.8733C77.3496 77.6771 77.5522 77.5572 77.773 77.5518L77.7634 77.5311Z" fill="white" stroke="white" stroke-width="0.11"/>
</g>
<path d="M26.564 129.836L23.2729 133.349V141.132H14.5559V110H23.2729V122.942L35.3255 110H45.021L32.3013 123.787L45.6881 141.132H35.4589L26.564 129.836Z" fill="#52BAE6"/>
<path d="M61.9296 141.755C57.3043 141.755 53.7018 140.495 51.1223 137.974C48.5724 135.454 47.2975 131.881 47.2975 127.256V110H56.1035V126.989C56.1035 131.97 58.0752 134.461 62.0186 134.461C65.9323 134.461 67.8892 131.97 67.8892 126.989V110H76.5618V127.256C76.5618 131.881 75.272 135.454 72.6925 137.974C70.1426 140.495 66.555 141.755 61.9296 141.755Z" fill="#52BAE6"/>
<path d="M106.455 124.899C108.234 125.521 109.627 126.5 110.635 127.834C111.643 129.139 112.147 130.725 112.147 132.593C112.147 135.321 111.05 137.426 108.856 138.908C106.662 140.391 103.49 141.132 99.3386 141.132H82.5273V110H98.4492C102.422 110 105.446 110.741 107.522 112.224C109.597 113.676 110.635 115.648 110.635 118.139C110.635 119.621 110.265 120.955 109.523 122.141C108.812 123.298 107.789 124.217 106.455 124.899ZM91.2443 116.36V122.364H97.2928C100.258 122.364 101.74 121.356 101.74 119.34C101.74 117.353 100.258 116.36 97.2928 116.36H91.2443ZM98.627 134.772C101.711 134.772 103.252 133.72 103.252 131.615C103.252 129.509 101.711 128.457 98.627 128.457H91.2443V134.772H98.627Z" fill="#52BAE6"/>
<path d="M141.703 134.327V141.132H116.708V110H141.125V116.804H125.425V122.052H139.257V128.635H125.425V134.327H141.703Z" fill="#52BAE6"/>
<path d="M26.1443 184.977C23.0903 184.977 20.3329 184.295 17.872 182.931C15.4407 181.567 13.5135 179.685 12.0903 177.283C10.6968 174.881 10 172.183 10 169.189C10 166.194 10.6968 163.496 12.0903 161.094C13.5135 158.693 15.4407 156.81 17.872 155.446C20.3329 154.082 23.0903 153.4 26.1443 153.4C28.3976 153.4 30.4731 153.771 32.3707 154.512C34.2683 155.224 35.8842 156.291 37.2184 157.714L35.7952 159.182C33.3047 156.721 30.1173 155.491 26.2332 155.491C23.624 155.491 21.2521 156.083 19.1173 157.269C16.9825 158.455 15.3073 160.101 14.0917 162.206C12.876 164.282 12.2682 166.609 12.2682 169.189C12.2682 171.768 12.876 174.111 14.0917 176.216C15.3073 178.291 16.9825 179.922 19.1173 181.108C21.2521 182.294 23.624 182.887 26.2332 182.887C30.0877 182.887 33.275 181.642 35.7952 179.151L37.2184 180.619C35.8842 182.042 34.2535 183.124 32.3262 183.865C30.4286 184.607 28.368 184.977 26.1443 184.977Z" fill="#222529"/>
<path d="M44.104 151.755H46.3277V184.755H44.104V151.755Z" fill="#222529"/>
<path d="M63.5279 161.361C66.4039 161.361 68.6128 162.102 70.1546 163.585C71.6964 165.038 72.4673 167.187 72.4673 170.034V184.755H70.3325V180.619C69.5913 181.983 68.509 183.05 67.0859 183.821C65.6627 184.562 63.9578 184.933 61.9713 184.933C59.3918 184.933 57.3459 184.325 55.8338 183.109C54.3513 181.894 53.6101 180.292 53.6101 178.306C53.6101 176.379 54.292 174.822 55.6559 173.636C57.0494 172.42 59.2583 171.813 62.2826 171.813H70.2435V169.945C70.2435 167.78 69.6506 166.135 68.4646 165.008C67.3082 163.881 65.6034 163.318 63.35 163.318C61.8082 163.318 60.3257 163.585 58.9025 164.119C57.509 164.652 56.323 165.364 55.3446 166.253L54.2327 164.652C55.389 163.615 56.7826 162.814 58.4133 162.251C60.0441 161.658 61.7489 161.361 63.5279 161.361ZM62.2826 183.109C64.2098 183.109 65.8406 182.664 67.1748 181.775C68.5387 180.885 69.5616 179.596 70.2435 177.906V173.547H62.3271C60.044 173.547 58.3837 173.962 57.3459 174.792C56.3378 175.623 55.8338 176.764 55.8338 178.217C55.8338 179.729 56.3971 180.93 57.5238 181.819C58.6505 182.679 60.2368 183.109 62.2826 183.109Z" fill="#222529"/>
<path d="M83.7642 166.609C84.4757 164.919 85.5876 163.629 87.0997 162.74C88.6119 161.821 90.4502 161.361 92.6146 161.361V163.54L92.0809 163.496C89.5014 163.496 87.4852 164.311 86.0324 165.942C84.5795 167.543 83.8531 169.782 83.8531 172.658V184.755H81.6294V161.539H83.7642V166.609Z" fill="#222529"/>
<path d="M98.7416 161.539H100.965V184.755H98.7416V161.539ZM99.8535 155.891C99.3495 155.891 98.9195 155.728 98.5637 155.402C98.2079 155.046 98.0301 154.616 98.0301 154.112C98.0301 153.608 98.2079 153.178 98.5637 152.822C98.9195 152.466 99.3495 152.288 99.8535 152.288C100.358 152.288 100.787 152.466 101.143 152.822C101.499 153.148 101.677 153.563 101.677 154.067C101.677 154.571 101.499 155.001 101.143 155.357C100.787 155.713 100.358 155.891 99.8535 155.891Z" fill="#222529"/>
<path d="M121.857 183.287C121.294 183.821 120.582 184.236 119.722 184.532C118.892 184.799 118.017 184.933 117.098 184.933C115.082 184.933 113.525 184.384 112.428 183.287C111.331 182.16 110.783 180.604 110.783 178.617V163.451H106.513V161.539H110.783V156.469H113.007V161.539H120.389V163.451H113.007V178.395C113.007 179.907 113.362 181.063 114.074 181.864C114.815 182.635 115.897 183.02 117.321 183.02C118.773 183.02 119.974 182.59 120.923 181.73L121.857 183.287Z" fill="#222529"/>
<path d="M146.259 161.539L134.34 187.912C133.45 189.958 132.412 191.411 131.226 192.271C130.07 193.131 128.691 193.561 127.09 193.561C126.023 193.561 125.015 193.383 124.066 193.027C123.147 192.671 122.361 192.152 121.709 191.47L122.821 189.78C124.007 190.996 125.445 191.604 127.135 191.604C128.262 191.604 129.225 191.293 130.026 190.67C130.826 190.047 131.567 188.98 132.249 187.468L133.495 184.666L123.043 161.539H125.4L134.695 182.309L143.991 161.539H146.259Z" fill="#222529"/>
<defs>
<clipPath id="clip0_81_40410">
<rect width="26.5574" height="26.5574" fill="white" transform="translate(64.6746 60.1638)"/>
</clipPath>
</defs>
</svg>
